<svg width="24" height="24" viewBox="0 0 24 24" fill="none" xmlns="http://www.w3.org/2000/svg">
<path d="M18 19C18.2761 19 18.5 18.7761 18.5 18.5C18.5 18.2239 18.2761 18 18 18V19ZM6 18C5.72386 18 5.5 18.2239 5.5 18.5C5.5 18.7761 5.72386 19 6 19V18ZM7.214 18.5C7.214 18.7761 7.43786 19 7.714 19C7.99014 19 8.214 18.7761 8.214 18.5H7.214ZM7.714 15.438H8.214C8.214 15.4311 8.21386 15.4243 8.21358 15.4174L7.714 15.438ZM8.714 13.603L8.48796 13.157C8.47865 13.1617 8.46948 13.1667 8.46049 13.172L8.714 13.603ZM10.908 12.491L11.1341 12.937L11.1378 12.9351L10.908 12.491ZM13.093 12.491L12.8632 12.9351L12.8672 12.9371L13.093 12.491ZM15.284 13.6L15.5375 13.169C15.5284 13.1637 15.5192 13.1586 15.5098 13.1539L15.284 13.6ZM16.284 15.435L15.7844 15.4144C15.7841 15.4213 15.784 15.4281 15.784 15.435H16.284ZM15.784 18.5C15.784 18.7761 16.0079 19 16.284 19C16.5601 19 16.784 18.7761 16.784 18.5H15.784ZM16.784 4.5C16.784 4.22386 16.5601 4 16.284 4C16.0079 4 15.784 4.22386 15.784 4.5H16.784ZM16.284 8H15.784C15.784 8.00686 15.7841 8.01371 15.7844 8.02056L16.284 8ZM15.284 9.835L15.51 10.281C15.5194 10.2763 15.5285 10.2713 15.5375 10.266L15.284 9.835ZM13.092 10.946L12.8659 10.5L12.8622 10.5019L13.092 10.946ZM10.907 10.946L11.1368 10.5019L11.1331 10.5001L10.907 10.946ZM8.716 9.835L8.46249 10.266C8.47146 10.2712 8.48059 10.2762 8.48987 10.2809L8.716 9.835ZM7.716 8L8.21558 8.02056C8.21586 8.01371 8.216 8.00686 8.216 8H7.716ZM8.216 4.5C8.216 4.22386 7.99214 4 7.716 4C7.43986 4 7.216 4.22386 7.216 4.5H8.216ZM16.287 4C16.0109 4 15.787 4.22386 15.787 4.5C15.787 4.77614 16.0109 5 16.287 5V4ZM18 5C18.2761 5 18.5 4.77614 18.5 4.5C18.5 4.22386 18.2761 4 18 4V5ZM16.286 5C16.5621 5 16.786 4.77614 16.786 4.5C16.786 4.22386 16.5621 4 16.286 4V5ZM7.714 4C7.43786 4 7.214 4.22386 7.214 4.5C7.214 4.77614 7.43786 5 7.714 5V4ZM7.714 5C7.99014 5 8.214 4.77614 8.214 4.5C8.214 4.22386 7.99014 4 7.714 4V5ZM6 4C5.72386 4 5.5 4.22386 5.5 4.5C5.5 4.77614 5.72386 5 6 5V4ZM10.538 8.06813C10.2995 7.92897 9.99329 8.00952 9.85413 8.24803C9.71497 8.48655 9.79552 8.79271 10.034 8.93187L10.538 8.06813ZM12 9.5L11.748 9.93187C11.9037 10.0227 12.0963 10.0227 12.252 9.93187L12 9.5ZM13.966 8.93187C14.2045 8.79271 14.285 8.48655 14.1459 8.24803C14.0067 8.00952 13.7005 7.92897 13.462 8.06813L13.966 8.93187ZM18 18H6V19H18V18ZM8.214 18.5V15.438H7.214V18.5H8.214ZM8.21358 15.4174C8.19033 14.8525 8.48015 14.3207 8.96751 14.034L8.46049 13.172C7.655 13.6459 7.17599 14.5248 7.21442 15.4586L8.21358 15.4174ZM8.94004 14.049L11.134 12.937L10.682 12.045L8.48796 13.157L8.94004 14.049ZM11.1378 12.9351C11.6789 12.6551 12.3221 12.6551 12.8632 12.9351L13.3228 12.0469C12.4935 11.6178 11.5075 11.6178 10.6782 12.0469L11.1378 12.9351ZM12.8672 12.9371L15.0582 14.0461L15.5098 13.1539L13.3188 12.0449L12.8672 12.9371ZM15.0305 14.031C15.5178 14.3177 15.8077 14.8495 15.7844 15.4144L16.7836 15.4556C16.822 14.5218 16.343 13.6429 15.5375 13.169L15.0305 14.031ZM15.784 15.435V18.5H16.784V15.435H15.784ZM15.784 4.5V8H16.784V4.5H15.784ZM15.7844 8.02056C15.8077 8.58552 15.5178 9.11734 15.0305 9.40404L15.5375 10.266C16.343 9.79214 16.822 8.91316 16.7836 7.97944L15.7844 8.02056ZM15.058 9.38901L12.866 10.5L13.318 11.392L15.51 10.281L15.058 9.38901ZM12.8622 10.5019C12.3211 10.7819 11.6779 10.7819 11.1368 10.5019L10.6772 11.3901C11.5065 11.8192 12.4925 11.8192 13.3218 11.3901L12.8622 10.5019ZM11.1331 10.5001L8.94213 9.38906L8.48987 10.2809L10.6809 11.3919L11.1331 10.5001ZM8.96951 9.40404C8.48215 9.11734 8.19233 8.58552 8.21558 8.02056L7.21642 7.97944C7.17799 8.91316 7.657 9.79214 8.46249 10.266L8.96951 9.40404ZM8.216 8V4.5H7.216V8H8.216ZM16.287 5H18V4H16.287V5ZM16.286 4H7.714V5H16.286V4ZM7.714 4H6V5H7.714V4ZM10.034 8.93187L11.748 9.93187L12.252 9.06813L10.538 8.06813L10.034 8.93187ZM12.252 9.93187L13.966 8.93187L13.462 8.06813L11.748 9.06813L12.252 9.93187Z" fill="#171717"/>
</svg>
