<svg width="720" height="1024" viewBox="0 0 720 1024" fill="none" xmlns="http://www.w3.org/2000/svg">
<path d="M820.484 -42.272C784.333 -29.9684 713.033 23.6203 717.043 139.547C722.056 284.455 831.421 375.137 858.762 511.843C878.942 612.742 876.078 865.455 753.043 971.63" stroke="white" stroke-opacity="0.06" strokeWidth="1.5"/>
<path d="M765.515 -25.0051C729.364 -12.7016 658.064 40.8871 662.074 156.814C667.087 301.722 776.452 392.404 803.793 529.11C823.973 630.009 821.109 882.722 698.074 988.897" stroke="white" stroke-opacity="0.06" strokeWidth="1.5"/>
<path d="M709.802 -10.3162C673.651 1.98737 602.351 55.5761 606.362 171.503C611.374 316.411 720.739 407.093 748.08 543.798C768.26 644.698 765.396 897.411 642.361 1003.59" stroke="white" stroke-opacity="0.06" strokeWidth="1.5"/>
<path d="M653.376 1.33984C617.225 13.6434 545.925 67.2321 549.935 183.159C554.948 328.067 664.313 418.749 691.654 555.454C711.834 656.354 708.97 909.067 585.935 1015.24" stroke="white" stroke-opacity="0.06" strokeWidth="1.5"/>
<path d="M596.324 9.38574C560.173 21.6893 488.873 75.278 492.883 191.205C497.896 336.113 607.261 426.794 634.602 563.5C654.782 664.4 651.918 917.113 528.883 1023.29" stroke="white" stroke-opacity="0.06" strokeWidth="1.5"/>
<path d="M538.827 13.0977C502.676 25.4012 431.376 78.9899 435.386 194.917C440.398 339.825 549.763 430.506 577.104 567.212C597.284 668.111 594.42 920.825 471.385 1027" stroke="white" stroke-opacity="0.06" strokeWidth="1.5"/>
<path d="M481.229 11.5874C445.078 23.8909 373.778 77.4797 377.789 193.406C382.801 338.315 492.166 428.996 519.507 565.702C539.687 666.601 536.823 919.315 413.788 1025.49" stroke="white" stroke-opacity="0.06" strokeWidth="1.5"/>
<path d="M424.138 3.82764C387.987 16.1312 316.687 69.7199 320.697 185.647C325.71 330.555 435.074 421.236 462.415 557.942C482.595 658.841 479.732 911.555 356.696 1017.73" stroke="white" stroke-opacity="0.06" strokeWidth="1.5"/>
<path d="M368.522 -11.2273C332.371 1.07624 261.071 54.665 265.081 170.592C270.094 315.5 379.459 406.181 406.8 542.887C426.98 643.787 424.116 896.5 301.08 1002.67" stroke="white" stroke-opacity="0.06" strokeWidth="1.5"/>
<path d="M306.191 -38.4316C270.039 -26.1281 198.74 27.4606 202.75 143.387C207.762 288.296 317.127 378.977 344.468 515.683C364.648 616.582 361.784 869.296 238.749 975.471" stroke="white" stroke-opacity="0.06" strokeWidth="1.5"/>
<path d="M252.786 -60.0586C216.635 -47.7551 145.335 5.83366 149.345 121.76C154.358 266.669 263.723 357.35 291.064 494.056C311.244 594.955 308.38 847.669 185.345 953.844" stroke="white" stroke-opacity="0.06" strokeWidth="1.5"/>
<path d="M197.779 -77.199C161.628 -64.8954 90.3278 -11.3067 94.3378 104.62C99.3504 249.528 208.715 340.21 236.056 476.916C256.236 577.815 253.372 830.528 130.337 936.703" stroke="white" stroke-opacity="0.06" strokeWidth="1.5"/>
<path d="M141.545 -89.7478C105.393 -77.4443 34.0937 -23.8555 38.1037 92.0711C43.1162 236.979 152.481 327.661 179.822 464.367C200.002 565.266 197.138 817.979 74.1029 924.154" stroke="white" stroke-opacity="0.06" strokeWidth="1.5"/>
<path d="M84.4796 -97.7061C48.3284 -85.4025 -22.9713 -31.8138 -18.9612 84.1128C-13.9487 229.021 95.4161 319.703 122.757 456.409C142.937 557.308 140.073 810.021 17.038 916.196" stroke="white" stroke-opacity="0.06" strokeWidth="1.5"/>
<path d="M26.9674 -101.174C-9.18376 -88.8708 -80.4835 -35.2821 -76.4735 80.6446C-71.4609 225.553 37.9039 316.234 65.245 452.94C85.4249 553.84 82.5611 806.553 -40.4742 912.728" stroke="white" stroke-opacity="0.06" strokeWidth="1.5"/>
<path d="M-30.6437 -100.33C-66.7948 -88.0261 -138.095 -34.4373 -134.085 81.4893C-129.072 226.398 -19.7072 317.079 7.63396 453.785C27.8138 554.684 24.95 807.398 -98.0853 913.573" stroke="white" stroke-opacity="0.06" strokeWidth="1.5"/>
</svg>
