<svg width="80" height="64" viewBox="0 0 80 64" fill="none" xmlns="http://www.w3.org/2000/svg">
<path fill-rule="evenodd" clip-rule="evenodd" d="M68.7558 10.6254C67.3721 11.4158 65.1464 12.001 61.9035 12.427C59.9088 12.6892 56.8331 12.7976 49.2532 12.8731C40.454 12.9608 39.0311 13.0209 37.5312 13.3684C34.2731 14.123 31.5589 15.7317 29.6416 18.0444C28.3329 19.623 28.1404 19.991 26.776 23.5223L25.6723 26.3794L23.6284 26.5282C21.0132 26.7187 19.4795 27.0378 18.134 27.6719C16.0677 28.6456 14.7456 30.4512 14.2511 32.9743C13.9256 34.6348 14.3241 36.1554 15.4221 37.443C16.2657 38.4322 16.5731 38.5549 16.5731 37.9029C16.5731 37.0714 17.1717 36.2803 18.0937 35.8934C18.8656 35.5694 19.8382 35.5 24.7459 35.4196C30.2855 35.3288 30.4887 35.3396 30.3538 35.7199C30.1472 36.3017 29.623 36.8538 28.9076 37.2434C28.425 37.5065 27.4533 37.6144 24.8138 37.698L21.3528 37.8076L20.0518 41.2996C17.3895 48.4456 15.734 50.6959 11.4898 52.9376L10 53.7246L10.8092 53.8588C12.3441 54.1134 18.1677 54.0042 19.9716 53.687C25.7621 52.669 29.9239 49.8333 32.1668 45.3776C32.532 44.6523 33.5623 42.1286 34.4565 39.7693L36.0823 35.4797L42.6149 35.3571C49.8792 35.2206 50.6344 35.0991 53.7672 33.5621C56.6054 32.1693 59.5468 29.4439 60.7663 27.0767L61.0709 26.4852H50.3129C42.3195 26.4852 39.5546 26.4224 39.5546 26.2408C39.5546 26.1064 39.9358 25.6323 40.4017 25.1875C41.6455 23.9998 42.7245 23.7676 47.6719 23.6227C52.2066 23.49 55.1792 23.1408 57.6159 22.4544C62.9704 20.9463 66.6624 18.2038 68.6204 14.2801C69.285 12.9483 70.2169 9.95936 69.9546 10.0004C69.8751 10.0129 69.3356 10.2942 68.7558 10.6254ZM20.9931 29.6504C21.4985 29.9715 21.017 30.9744 20.1538 31.3992C18.6372 32.1452 17.9149 31.2432 19.087 30.0667C19.7072 29.4441 20.422 29.2879 20.9931 29.6504Z" fill="white"/>
</svg>
