<svg width="18" height="18" viewBox="0 0 18 18" fill="none" xmlns="http://www.w3.org/2000/svg">
<g clipPath="url(#clip0_429_3616)">
<path d="M2.25 2.25L15.75 15.75" stroke="#52525B" strokeLinecap="round" strokeLinejoin="round"/>
<path d="M7.93785 7.94019C7.65639 8.22145 7.49819 8.603 7.49805 9.00091C7.49791 9.39881 7.65584 9.78047 7.9371 10.0619C8.21836 10.3434 8.59991 10.5016 8.99782 10.5017C9.39573 10.5019 9.77739 10.3439 10.0589 10.0627" stroke="#52525B" strokeLinecap="round" strokeLinejoin="round"/>
<path d="M7.02225 4.02379C7.66531 3.83984 8.33115 3.74768 9 3.75004C12 3.75004 14.4998 5.49979 16.5 9.00004C15.9165 10.0208 15.291 10.893 14.6228 11.616M13.0178 13.0118C11.7945 13.8368 10.4565 14.25 9 14.25C6 14.25 3.50025 12.5003 1.5 9.00004C2.52675 7.20379 3.68475 5.86879 4.974 4.99429" stroke="#52525B" strokeLinecap="round" strokeLinejoin="round"/>
</g>
<defs>
<clipPath id="clip0_429_3616">
<rect width="18" height="18" fill="white"/>
</clipPath>
</defs>
</svg>
